<?xml version="1.0" encoding="utf-8"?>
<!-- Generator: Adobe Illustrator 21.1.0, SVG Export Plug-In . SVG Version: 6.00 Build 0)  -->
<svg version="1.1" id="Layer_1" xmlns="http://www.w3.org/2000/svg" xmlns:xlink="http://www.w3.org/1999/xlink" x="0px" y="0px"
	 viewBox="0 0 474.4 75" style="enable-background:new 0 0 474.4 75;" xml:space="preserve">
<style type="text/css">
	.st0{fill:#007AE6;}
	.st1{fill:#00539B;}
	.st2{fill:#494949;}
</style>
<g>
	<g>
		<polygon class="st0" points="112.5,24.8 57.5,16.1 57.5,0.7 		"/>
	</g>
	<g>
		<polygon class="st0" points="57.5,52.2 57.5,18.8 112.5,27.4 		"/>
	</g>
	<g>
		<polygon class="st0" points="0,24.7 55,16 55,0.6 		"/>
	</g>
	<g>
		<polygon class="st0" points="55,52.1 55,18.8 0,27.4 		"/>
	</g>
	<g>
		<path class="st1" d="M143.7,36.2c-10.3,0-17.9-7.9-17.9-17.9v-0.1c0-9.9,7.5-18,18.2-18c6.6,0,10.5,2.2,13.7,5.4l-4.9,5.6
			c-2.7-2.4-5.4-3.9-8.9-3.9c-5.9,0-10.1,4.9-10.1,10.9v0.1c0,6,4.1,11,10.1,11c4,0,6.4-1.6,9.2-4.1L158,30
			C154.4,33.8,150.4,36.2,143.7,36.2z"/>
		<path class="st1" d="M200,35.6l-3.2-7.8h-14.7l-3.2,7.8H171L186,0.5h7.1L208,35.6H200z M189.4,9.7L184.8,21h9.3L189.4,9.7z"/>
		<path class="st1" d="M236.8,25.1h-5.8v10.5h-7.7V0.7h14.2c8.3,0,13.3,4.9,13.3,12.1v0.1C250.9,20.9,244.6,25.1,236.8,25.1z
			 M243.1,12.9c0-3.4-2.4-5.3-6.2-5.3h-5.9v10.7h6.1C240.9,18.3,243.1,16,243.1,12.9L243.1,12.9z"/>
		<path class="st1" d="M278.9,36.1c-5.3,0-10.6-1.8-14.8-5.6l4.5-5.4c3.1,2.6,6.4,4.2,10.4,4.2c3.1,0,5-1.2,5-3.3v-0.1
			c0-1.9-1.2-2.9-7-4.4c-7-1.8-11.6-3.7-11.6-10.7v-0.1c0-6.3,5.1-10.5,12.2-10.5c5.1,0,9.4,1.6,12.9,4.4l-4,5.8
			c-3.1-2.1-6.1-3.4-9.1-3.4c-2.9,0-4.5,1.3-4.5,3v0.1c0,2.3,1.5,3,7.5,4.6c7.1,1.8,11.1,4.4,11.1,10.5v0.1
			C291.7,32.2,286.4,36.1,278.9,36.1z"/>
	</g>
	<g>
		<path class="st1" d="M323.4,7.8v27.8h-7.7V7.8h-10.6V0.7H334v7.1H323.4z"/>
	</g>
	<g>
		<path class="st1" d="M363.3,36.1c-10.8,0-18.5-8-18.5-17.9V18c0-9.9,7.8-18,18.6-18c10.8,0,18.5,8,18.5,17.9V18
			C381.9,27.9,374,36.1,363.3,36.1z M373.8,18c0-6-4.4-11-10.6-11s-10.5,4.9-10.5,10.9V18c0,6,4.4,11,10.6,11
			C369.6,29,373.8,24.1,373.8,18L373.8,18z"/>
		<path class="st1" d="M423.1,35.5l-16.9-22.2v22.2h-7.6V0.6h7.1L422,22.1V0.6h7.6v34.9H423.1z"/>
		<path class="st1" d="M447.9,35.5V0.6h26.3v6.8h-18.7v7.1h16.4v6.8h-16.4v7.3h18.9v6.8H447.9z"/>
	</g>
	<g>
		<path class="st2" d="M131.7,48.7h2v16.1h10.1v1.9h-12.1V48.7z"/>
		<path class="st2" d="M146.3,57.7L146.3,57.7c0-5,3.7-9.3,9.2-9.3s9.1,4.3,9.1,9.2v0.1c0,5-3.7,9.3-9.2,9.3S146.3,62.7,146.3,57.7z
			 M162.5,57.7L162.5,57.7c0-4.1-3-7.5-7.1-7.5s-7,3.3-7,7.4v0.1c0,4.1,3,7.4,7.1,7.4S162.5,61.8,162.5,57.7z"/>
		<path class="st2" d="M168.7,57.7L168.7,57.7c0-5,3.6-9.3,9-9.3c3,0,4.9,0.9,6.7,2.4l-1.3,1.5c-1.4-1.2-2.9-2.1-5.5-2.1
			c-4,0-6.8,3.4-6.8,7.4v0.1c0,4.3,2.7,7.5,7.1,7.5c2.1,0,4-0.8,5.2-1.8v-4.5h-5.5v-1.8h7.4v7.2c-1.7,1.5-4.2,2.7-7.2,2.7
			C172.1,67,168.7,62.9,168.7,57.7z"/>
		<path class="st2" d="M190.2,48.7h2v18h-2V48.7z"/>
		<path class="st2" d="M196.8,64.1l1.3-1.5c1.9,1.7,3.7,2.5,6.2,2.5c2.4,0,4-1.3,4-3.1V62c0-1.7-0.9-2.6-4.7-3.4
			c-4.1-0.9-6-2.2-6-5.2v-0.1c0-2.8,2.5-4.9,5.9-4.9c2.6,0,4.5,0.7,6.3,2.2l-1.2,1.6c-1.7-1.4-3.3-1.9-5.2-1.9
			c-2.3,0-3.8,1.3-3.8,2.9v0.1c0,1.7,0.9,2.6,4.9,3.5c4,0.9,5.8,2.3,5.8,5.1v0.1c0,3.1-2.6,5.1-6.1,5.1
			C201.3,66.9,199,66,196.8,64.1z"/>
		<path class="st2" d="M219.3,50.6h-6v-1.9h14.1v1.9h-6v16.1h-2.1V50.6z"/>
		<path class="st2" d="M231.9,48.7h2v18h-2V48.7z"/>
		<path class="st2" d="M238.9,57.7L238.9,57.7c0-5.1,3.8-9.3,9.1-9.3c3.3,0,5.2,1.2,7,2.8l-1.4,1.5c-1.5-1.4-3.2-2.5-5.6-2.5
			c-4,0-7,3.2-7,7.4v0.1c0,4.2,3,7.4,7,7.4c2.5,0,4.1-0.9,5.8-2.6l1.3,1.3c-1.9,1.9-3.9,3.2-7.2,3.2C242.7,67,238.9,62.9,238.9,57.7
			z"/>
		<path class="st2" d="M257.9,64.1l1.3-1.5c1.9,1.7,3.7,2.5,6.2,2.5c2.4,0,4-1.3,4-3.1V62c0-1.7-0.9-2.6-4.7-3.4
			c-4.1-0.9-6-2.2-6-5.2v-0.1c0-2.8,2.5-4.9,5.9-4.9c2.6,0,4.5,0.7,6.3,2.2l-1.2,1.6c-1.7-1.4-3.3-1.9-5.2-1.9
			c-2.3,0-3.8,1.3-3.8,2.9v0.1c0,1.7,0.9,2.6,4.9,3.5c4,0.9,5.8,2.3,5.8,5.1v0.1c0,3.1-2.6,5.1-6.1,5.1
			C262.4,66.9,260.1,66,257.9,64.1z"/>
	</g>
	<g>
		<path class="st1" d="M0.2,30.7c1.4,0.9,54.3,24.1,54.3,24.1V75L0.2,46V30.7z"/>
	</g>
	<g>
		<path class="st1" d="M112.5,30.7c-1.4,0.9-55,24.1-55,24.1V75l55-29V30.7z"/>
	</g>
</g>
</svg>
